<svg xmlns="http://www.w3.org/2000/svg" width="512" height="512"><g stroke="#000"><path d="M384 256a128 128 0 1 1-256 0 128 128 0 1 1 256 0z" transform="translate(0 -540.362) translate(0 540.362)" stroke-width="96" fill="none"/><path d="M256 32c-5.948 0-11.856.232-17.688.688l-23 71.469-55.688-50.406c-10.697 5.106-20.916 11.017-30.594 17.688l15.813 73.406-73.406-15.813c-6.671 9.678-12.582 19.897-17.688 30.594l50.406 55.688-71.469 23c-.455 5.831-.688 11.739-.688 17.688 0 5.948.232 11.856.688 17.688l71.469 23-50.406 55.688c5.106 10.697 11.017 20.916 17.688 30.594l73.406-15.813-15.813 73.406c9.678 6.671 19.897 12.582 30.594 17.688l55.688-50.406 23 71.469c5.831.455 11.739.688 17.688.688 5.948 0 11.856-.232 17.688-.688l23-71.469 55.688 50.406c10.697-5.106 20.916-11.017 30.594-17.688l-15.813-73.406 73.406 15.813c6.671-9.678 12.582-19.897 17.688-30.594l-50.406-55.688 71.469-23c.455-5.831.688-11.739.688-17.688 0-5.948-.232-11.856-.688-17.688l-71.469-23 50.406-55.688c-5.106-10.697-11.017-20.916-17.688-30.594l-73.406 15.813 15.813-73.406c-9.678-6.671-19.897-12.582-30.594-17.688l-55.688 50.406-23-71.469c-5.831-.455-11.739-.688-17.688-.688z" stroke-linejoin="round" stroke-dashoffset="486.4"/><path d="M339.411 252.754a86.657 86.657 0 1 1-173.315 0 86.657 86.657 0 1 1 173.315 0z" transform="translate(0 -540.362) translate(3.246 543.608)" fill="#fff" stroke-linejoin="round" stroke-dashoffset="486.4"/></g></svg>