<svg xmlns="http://www.w3.org/2000/svg" xmlns:xlink="http://www.w3.org/1999/xlink" width="1700" height="1700"><g transform="matrix(2.957 0 0 2.957 -2.425 -1428.171)"><path stroke="#000" stroke-width="2" stroke-linecap="round" stroke-dashoffset="486.4" fill="none" d="M32.502 514.877h510.995v510.995h-510.995z"/><path id="a" d="M96.5 514.874v511.002" stroke="#000" stroke-width="2" fill="none"/><use transform="translate(64)" height="520" width="520" id="b" xlink:href="#a"/><use transform="translate(128)" height="520" width="520" id="c" xlink:href="#a"/><use transform="translate(192)" height="520" width="520" id="d" xlink:href="#a"/><use transform="translate(256)" height="520" width="520" id="e" xlink:href="#a"/><use transform="translate(320)" height="520" width="520" id="f" xlink:href="#a"/><use transform="translate(384)" height="520" width="520" id="g" xlink:href="#a"/><use height="520" width="520" transform="matrix(0 -1 1 0 -481.875 1058.874)" xlink:href="#a"/><use height="520" width="520" transform="matrix(0 -1 1 0 -481.875 1058.874)" xlink:href="#b"/><use height="520" width="520" transform="matrix(0 -1 1 0 -481.875 1058.874)" xlink:href="#c"/><use height="520" width="520" transform="matrix(0 -1 1 0 -481.875 1058.874)" xlink:href="#d"/><use height="520" width="520" transform="matrix(0 -1 1 0 -481.875 1058.874)" xlink:href="#e"/><use height="520" width="520" transform="matrix(0 -1 1 0 -481.875 1058.874)" xlink:href="#f"/><use height="520" width="520" transform="matrix(0 -1 1 0 -481.875 1058.874)" xlink:href="#g"/><path d="M166.5 642.375c0 3.314-2.686 6-6 6s-6-2.686-6-6 2.686-6 6-6 6 2.686 6 6z" id="h"/><use height="520" width="520" transform="translate(0 256.674)" xlink:href="#h"/><path d="M422 642.375c0 3.314-2.686 6-6 6s-6-2.686-6-6 2.686-6 6-6 6 2.686 6 6z"/><path d="M422 897.875c0 3.314-2.686 6-6 6s-6-2.686-6-6 2.686-6 6-6 6 2.686 6 6z"/><path d="M294 769.788c0 3.314-2.686 6-6 6s-6-2.686-6-6 2.686-6 6-6 6 2.686 6 6z"/></g></svg>