<svg xmlns="http://www.w3.org/2000/svg" viewBox="0 0 1700 1700"><path stroke="#000" stroke-width="8" d="M94 98h1512"/><path stroke="#000" stroke-width="4" d="M98 286h1504M98 474h1504M98 662h1504M98 850h1504M98 1038h1504M98 1226h1504M98 1414h1504"/><path stroke="#000" stroke-width="8" d="M94 1602h1512M98 94v1512"/><path stroke="#000" stroke-width="4" d="M286 98v1504M474 98v1504M662 98v1504M850 98v1504M1038 98v1504M1226 98v1504M1414 98v1504"/><path stroke="#000" stroke-width="8" d="M1602 98v1504"/><circle cx="474" cy="474" r="11"/><circle cx="850" cy="850" r="11"/><circle cx="1226" cy="1226" r="11"/><circle cx="474" cy="1226" r="11"/><circle cx="1226" cy="474" r="11"/></svg>