<svg xmlns="http://www.w3.org/2000/svg" viewBox="0 0 1700 1700"><path stroke="#000" stroke-width="8" d="M66 70h1568"/><path stroke="#000" stroke-width="4" d="M70 200h1560M70 330h1560M70 460h1560M70 590h1560M70 720h1560M70 850h1560M70 980h1560M70 1110h1560M70 1240h1560M70 1370h1560M70 1500h1560"/><path stroke="#000" stroke-width="8" d="M66 1630h1568M70 66v1568"/><path stroke="#000" stroke-width="4" d="M200 70v1560M330 70v1560M460 70v1560M590 70v1560M720 70v1560M850 70v1560M980 70v1560M1110 70v1560M1240 70v1560M1370 70v1560M1500 70v1560"/><path stroke="#000" stroke-width="8" d="M1630 70v1560"/><circle cx="460" cy="460" r="11"/><circle cx="850" cy="850" r="11"/><circle cx="1240" cy="1240" r="11"/><circle cx="460" cy="1240" r="11"/><circle cx="1240" cy="460" r="11"/></svg>