<svg xmlns="http://www.w3.org/2000/svg" xmlns:xlink="http://www.w3.org/1999/xlink" width="1700" height="1700"><g transform="translate(-1554.767 -1696.402)"><g id="l" transform="matrix(.283 0 0 .283 1725.106 1826.71)"><path id="a" d="M-435.623-294.718h5680.783" stroke="#000" stroke-width="16" stroke-linecap="square" fill="none"/><use height="1052.362" width="744.094" transform="translate(0 631.36)" id="b" xlink:href="#a"/><use height="1052.362" width="744.094" transform="translate(0 1262.72)" id="c" xlink:href="#a"/><use height="1052.362" width="744.094" transform="translate(0 1894.08)" id="d" xlink:href="#a"/><use height="1052.362" width="744.094" transform="translate(0 2525.44)" id="e" xlink:href="#a"/><use height="1052.362" width="744.094" transform="translate(0 3156.8)" id="f" xlink:href="#a"/><use height="1052.362" width="744.094" transform="translate(0 3788.16)" id="g" xlink:href="#a"/><use height="1052.362" width="744.094" transform="translate(0 4419.52)" id="h" xlink:href="#a"/><use height="1052.362" width="744.094" transform="translate(0 5682.24)" id="i" xlink:href="#a"/><use height="1052.362" width="744.094" transform="translate(0 315.68)" xlink:href="#a"/><use height="1052.362" width="744.094" transform="translate(0 315.68)" xlink:href="#b"/><use height="1052.362" width="744.094" transform="translate(0 315.68)" xlink:href="#c"/><use height="1052.362" width="744.094" transform="translate(0 315.68)" xlink:href="#d"/><use height="1052.362" width="744.094" transform="translate(0 315.68)" xlink:href="#e"/><use height="1052.362" width="744.094" transform="translate(0 315.68)" xlink:href="#f"/><use height="1052.362" width="744.094" transform="translate(0 315.68)" xlink:href="#g"/><use height="1052.362" width="744.094" transform="translate(0 631.36)" xlink:href="#h"/><use height="1052.362" width="744.094" transform="translate(0 -947.04)" id="j" xlink:href="#i"/><use height="1052.362" width="744.094" transform="translate(0 631.36)" xlink:href="#j"/></g><use xlink:href="#k" id="m" transform="translate(0 1070.811)" width="744.094" height="1052.362"/><use xlink:href="#k" transform="translate(1070.987 1070.811)" width="744.094" height="1052.362"/><use xlink:href="#k" transform="translate(535.578 1070.491)" width="744.094" height="1052.362"/><use xlink:href="#l" transform="matrix(0 -1 1 0 -141.634 4951.17)" width="6022.175" height="6022.175"/><path id="k" d="M1878.861 2010.707c0 5.239-4.247 9.486-9.486 9.486-5.239 0-9.486-4.247-9.486-9.486 0-5.239 4.247-9.486 9.486-9.486 5.239 0 9.486 4.247 9.486 9.486z"/><use xlink:href="#k" transform="translate(535.578 .483)" width="744.094" height="1052.362"/><use xlink:href="#k" transform="translate(1070.725 .483)" width="744.094" height="1052.362"/><use xlink:href="#k" transform="translate(1070.604 535.199)" width="744.094" height="1052.362"/><use xlink:href="#m" transform="translate(535.602 -535.302)" width="744.094" height="1052.362"/><use xlink:href="#k" transform="translate(0 535.91)" width="744.094" height="1052.362"/></g></svg>