<svg xmlns="http://www.w3.org/2000/svg" viewBox="0 0 1700 1700"><path stroke="#000" stroke-width="8" d="M45 49h1610"/><path stroke="#000" stroke-width="4" d="M49 138h1602M49 227h1602M49 316h1602M49 405h1602M49 494h1602M49 583h1602M49 672h1602M49 761h1602M49 850h1602M49 939h1602M49 1028h1602M49 1117h1602M49 1206h1602M49 1295h1602M49 1384h1602M49 1473h1602M49 1562h1602"/><path stroke="#000" stroke-width="8" d="M45 1651h1610M49 45v1610"/><path stroke="#000" stroke-width="4" d="M138 49v1602M227 49v1602M316 49v1602M405 49v1602M494 49v1602M583 49v1602M672 49v1602M761 49v1602M850 49v1602M939 49v1602M1028 49v1602M1117 49v1602M1206 49v1602M1295 49v1602M1384 49v1602M1473 49v1602M1562 49v1602"/><path stroke="#000" stroke-width="8" d="M1651 49v1602"/><circle cx="316" cy="316" r="11"/><circle cx="850" cy="850" r="11"/><circle cx="1384" cy="1384" r="11"/><circle cx="316" cy="850" r="11"/><circle cx="316" cy="1384" r="11"/><circle cx="850" cy="316" r="11"/><circle cx="850" cy="1384" r="11"/><circle cx="1384" cy="316" r="11"/><circle cx="1384" cy="850" r="11"/></svg>