<svg xmlns="http://www.w3.org/2000/svg" width="512" height="512"><g fill="#777" stroke="#000"><path d="M268.701 106.929l-217.688 217.688-41.514 138.489c-8.532 30.324-8.739 34.67-1.922 41.318 5.726 5.413 7.826 7.159 32.451-.126l147.356-43.31 217.688-217.688-28.284-28.284-205.368 205.368-96.652 35.064c-2.471-5.902-1.464-11.587-18.393-18.393l33.786-97.037 205.814-205.814z"/><path d="M317.188 155.416l-202.283 202.283c26.293 14.242 31.618 24.553 36.871 34.85l201.273-201.273z"/><path d="M290.924 84.705l136.371 136.371 28.789-28.789-136.371-136.371z"/><path d="M340.421 35.208l21.213-21.213c13.577-13.577 47.736-13.883 58.084-3.536l80.812 80.812c10.844 10.844 12.275 44.294 2.525 54.043l-26.264 26.264z"/></g></svg>