<svg xmlns="http://www.w3.org/2000/svg" width="512" height="512"><g><path d="M256 63.011c-5.125 0-10.215.2-15.239.592l-19.816 61.574-47.978-43.428c-9.216 4.399-18.02 9.492-26.358 15.239l13.623 63.244-63.244-13.623c-5.747 8.338-10.84 17.142-15.239 26.358l43.428 47.978-61.574 19.816c-.392 5.024-.592 10.114-.592 15.239s.2 10.215.592 15.239l61.574 19.816-43.428 47.978c4.399 9.216 9.492 18.02 15.239 26.358l63.244-13.623-13.623 63.244c8.338 5.747 17.142 10.84 26.358 15.239l47.978-43.428 19.816 61.574c5.024.392 10.114.592 15.239.592s10.215-.2 15.239-.592l19.816-61.574 47.978 43.428c9.216-4.399 18.02-9.492 26.358-15.239l-13.623-63.244 63.244 13.623c5.747-8.338 10.84-17.142 15.239-26.358l-43.428-47.978 61.574-19.816c.392-5.024.592-10.114.592-15.239s-.2-10.215-.592-15.239l-61.574-19.816 43.428-47.978c-4.399-9.216-9.492-18.02-15.239-26.358l-63.244 13.623 13.623-63.244c-8.338-5.747-17.142-10.84-26.358-15.239l-47.978 43.428-19.816-61.574c-5.024-.392-10.114-.592-15.239-.592zm0 118.33c41.234 0 74.659 33.426 74.659 74.659 0 41.234-33.426 74.659-74.659 74.659-41.234 0-74.659-33.426-74.659-74.659 0-41.234 33.426-74.659 74.659-74.659z" fill="#f6f6f6"/><path d="M384 256a128 128 0 1 1-256 0 128 128 0 1 1 256 0z" transform="matrix(.862 0 0 .862 35.441 35.442)" stroke="#f6f6f6" stroke-width="96" fill="none"/></g></svg>