<svg xmlns="http://www.w3.org/2000/svg" width="512" height="512"><g stroke="#787878"><path d="M384 256c0 70.692-57.308 128-128 128-70.692 0-128-57.308-128-128 0-70.692 57.308-128 128-128 70.692 0 128 57.308 128 128z" stroke-width="96" fill="none"/><path d="M256 32c-5.948 0-11.856.232-17.688.688l-23 71.469-55.688-50.406c-10.697 5.106-20.916 11.017-30.594 17.688l15.813 73.406-73.406-15.813c-6.671 9.678-12.582 19.897-17.688 30.594l50.406 55.688-71.469 23c-.455 5.831-.688 11.739-.688 17.688 0 5.948.232 11.856.688 17.688l71.469 23-50.406 55.688c5.106 10.697 11.017 20.916 17.688 30.594l73.406-15.813-15.813 73.406c9.678 6.671 19.897 12.582 30.594 17.688l55.688-50.406 23 71.469c5.831.455 11.739.688 17.688.688 5.948 0 11.856-.232 17.688-.688l23-71.469 55.688 50.406c10.697-5.106 20.916-11.017 30.594-17.688l-15.813-73.406 73.406 15.813c6.671-9.678 12.582-19.897 17.688-30.594l-50.406-55.688 71.469-23c.455-5.831.688-11.739.688-17.688 0-5.948-.232-11.856-.688-17.688l-71.469-23 50.406-55.688c-5.106-10.697-11.017-20.916-17.688-30.594l-73.406 15.813 15.813-73.406c-9.678-6.671-19.897-12.582-30.594-17.688l-55.688 50.406-23-71.469c-5.831-.455-11.739-.688-17.688-.688zm0 137.344c47.86 0 86.656 38.797 86.656 86.656 0 47.86-38.797 86.656-86.656 86.656-47.86 0-86.656-38.797-86.656-86.656 0-47.86 38.797-86.656 86.656-86.656z" fill="#787878" stroke-linejoin="round" stroke-dashoffset="486.4"/></g></svg>