<svg xmlns="http://www.w3.org/2000/svg" xmlns:xlink="http://www.w3.org/1999/xlink" width="512" height="512"><defs><linearGradient id="b"><stop offset="0" stop-color="#f6f6f6"/><stop offset="1" stop-color="#e6e6e6"/></linearGradient><linearGradient id="a"><stop offset="0" stop-color="#fff"/><stop offset=".5" stop-color="#fff" stop-opacity=".847"/><stop offset="1" stop-color="#fff" stop-opacity="0"/></linearGradient><filter id="c"><feGaussianBlur stdDeviation="13.44"/></filter><radialGradient xlink:href="#a" id="e" cx="320" cy="192" fx="320" fy="192" r="64" gradientUnits="userSpaceOnUse"/><radialGradient xlink:href="#b" id="d" cx="256" cy="256" fx="256" fy="256" r="226" gradientUnits="userSpaceOnUse"/></defs><g><path transform="translate(0 -540.362) translate(-4 546.362)" d="M480 256a224 224 0 1 1-448 0 224 224 0 1 1 448 0z" stroke="#000" stroke-width="4" stroke-linecap="round" filter="url(#c)"/><path d="M480 256a224 224 0 1 1-448 0 224 224 0 1 1 448 0z" transform="translate(0 -540.362) translate(0 540.362)" fill="url(#d)" stroke="#d1d1d1" stroke-width="4" stroke-linecap="round"/><path d="M384 192a64 64 0 1 1-128 0 64 64 0 1 1 128 0z" transform="matrix(1.906 0 0 1.906 -290.53 -173.152)" fill="url(#e)"/></g></svg>